<svg aria-hidden="true" style="position:absolute;width:0;height:0" xmlns="http://www.w3.org/2000/svg" overflow="hidden"><defs><symbol id="icon-menu" viewBox="0 0 48 32"><path stroke-width="4.5714" d="M0 2.286h46.857M0 16h46.857M0 29.714h46.857"/></symbol><symbol id="icon-dash" viewBox="0 0 213 32"><path d="M0 4.267h213.333V24.96H0V4.267z"/></symbol><symbol id="icon-close" viewBox="0 0 34 32"><path stroke="var(--color2, #fff)" stroke-width="4" d="M2.004 30.496L30.995 1.505m.001 28.991L2.005 1.505"/></symbol><symbol id="icon-arrow-left" viewBox="0 0 54 32"><path d="M52 14c1.105 0 2 .895 2 2s-.895 2-2 2v-4zM.586 17.414c-.781-.781-.781-2.047 0-2.828L13.314 1.858c.781-.781 2.047-.781 2.828 0s.781 2.047 0 2.828L4.828 16l11.314 11.314c.781.781.781 2.047 0 2.828s-2.047.781-2.828 0L.586 17.414zM52 18H2v-4h50v4z"/></symbol><symbol id="icon-arrow-right" viewBox="0 0 54 32"><path d="M2 14c-1.105 0-2 .895-2 2s.895 2 2 2v-4zm51.414 3.414c.781-.781.781-2.047 0-2.828L40.686 1.858c-.781-.781-2.047-.781-2.828 0s-.781 2.047 0 2.828L49.172 16 37.858 27.314c-.781.781-.781 2.047 0 2.828s2.047.781 2.828 0l12.728-12.728zM2 18h50v-4H2v4z"/></symbol><symbol id="icon-audio-book" viewBox="0 0 39 32"><path d="M3.047 29.453h12.23c.618 1.262 1.893 2.115 3.367 2.115h.801c1.474 0 2.748-.854 3.356-2.093l.01-.022h12.237c1.262-.001 2.285-1.024 2.286-2.286V5.262C37.332 4 36.31 2.978 35.048 2.977h-1.234V1.956c-.001-.841-.683-1.523-1.524-1.523H5.799c-.841.001-1.523.682-1.524 1.523v1.021H3.048C1.786 2.978.763 4 .761 5.262v21.905c.001 1.262 1.024 2.285 2.287 2.286zm29.24-4.702H19.81V7.046c2.885.377 5.121 2.845 5.121 5.831v.687l-.181-.04c-.049-.011-.106-.018-.164-.018-.363 0-.666.253-.743.593l-.001.005-1.213 5.52c-.011.049-.018.105-.018.163 0 .362.253.666.593.743l.005.001 2.621.578c.136.029.273.043.411.043.921 0 1.707-.631 1.907-1.535l.702-3.192c.029-.125.045-.269.045-.417 0-.929-.648-1.706-1.517-1.904l-.013-.003-.912-.201v-1.023c0-3.827-2.917-6.987-6.645-7.371V1.955h12.48l-.001 22.796zm-7.12-9.574l1.871.412c.233.052.377.275.325.508l-.702 3.191c-.051.231-.306.374-.507.331l-1.873-.413.886-4.029zM5.799 1.955h12.487v3.55c-3.731.381-6.651 3.542-6.651 7.372v1.022l-.913.202c-.517.115-.947.425-1.218.846l-.005.008c-.193.295-.307.657-.307 1.045 0 .15.017.297.05.437l-.003-.013.7 3.189c.199.887.98 1.539 1.913 1.539.146 0 .288-.016.425-.046l-.013.002 2.61-.577c.344-.078.598-.381.598-.744 0-.058-.006-.114-.018-.168l.001.005-1.213-5.519c-.077-.345-.381-.598-.743-.598-.058 0-.115.007-.17.019l.005-.001-.174.038v-.685c0-2.988 2.24-5.458 5.128-5.832v17.707H5.8V1.956zm7.117 13.222l.887 4.029-1.863.411c-.027.006-.058.009-.09.009-.205 0-.377-.143-.421-.334l-.001-.003-.702-3.196c-.007-.028-.011-.06-.011-.094 0-.084.025-.161.067-.227l-.001.002c.061-.094.155-.161.265-.186l.003-.001 1.867-.412zM2.286 5.262c0-.42.341-.762.761-.762h1.227v20.251c.001.842.683 1.524 1.525 1.524H32.29c.841-.001 1.523-.682 1.524-1.523V4.5h1.234c.421 0 .762.342.762.762v21.905c0 .42-.341.762-.762.762H22.294c-.335 0-.631.219-.729.539-.285.92-1.129 1.577-2.126 1.577h-.785c-1.002 0-1.849-.661-2.13-1.571l-.004-.016c-.101-.31-.388-.529-.725-.529H3.048c-.421 0-.762-.342-.762-.762V5.262z"/></symbol><symbol id="icon-check-mark" viewBox="0 0 40 32"><path d="M34.458 1.514c-1.485.664-2.907 1.475-4.266 2.379-2.731 1.797-5.227 3.936-7.568 6.218-2.291 2.256-4.444 4.63-6.458 7.12l-.125.16c-.515.637-2.822 3.472-2.822 3.472L3.622 6.481 0 16.524l12.976 15.477c1.261-2.552 2.474-5.07 3.664-7.258.294-.557.605-1.08.901-1.613 0 0 1.523-2.677 1.923-3.35 1.602-2.698 3.333-5.325 5.238-7.821 1.909-2.491 3.984-4.87 6.336-6.96 1.117-1.018 2.342-1.964 3.64-2.807l.11-.067C36.119 1.277 37.535.535 39.049 0c-1.574.31-3.112.848-4.592 1.514z"/></symbol><symbol id="icon-dotted-line" viewBox="0 0 2 32"><path stroke="var(--color3, #b9b9b9)" stroke-width=".8" d="M.8 0v32"/></symbol><symbol id="icon-elipse" viewBox="0 0 32 32"><path d="M16 32C7.163 32 0 24.837 0 16S7.163 0 16 0s16 7.163 16 16-7.163 16-16 16z"/></symbol><symbol id="icon-fire" viewBox="0 0 24 32"><path d="M21.909 16.592c-.285-.635-.675-1.259-1.248-1.982-1.44-1.813-1.882-5.856-1.886-5.896-.022-.194-.155-.352-.333-.41l-.003-.001c-.045-.015-.098-.024-.152-.024-.146 0-.277.063-.367.163-1.72 1.925-.997 4.898-.606 6.085.109.326.226.709.309 1.096.635 3.136-.592 4.558-.88 4.845-.278.077-.469.038-.645-.15-.608-.664-.808-2.842-.523-5.678.058-.576.043-1.096-.04-1.581-.598-3.486-2.79-5.722-3.349-6.506C10.65 4.283 10.495.505 10.49.473c-.01-.261-.225-.469-.488-.469-.103 0-.198.032-.277.086l.002-.001C7.167 1.83 7.386 6.025 7.743 8.366c.083.544.243 1.096.523 1.794.992 2.496-.197 5.722-.206 5.75s-.019.053-.024.083c-.152.795-.406 1.27-.688 1.27-.034-.001-.066-.007-.097-.017l.002.001c-.347-.072-.528-.44-.533-.76-.019-4.136-4.17-5.528-4.214-5.542s-.096-.024-.15-.024c-.147 0-.279.065-.368.169l-.001.001c-.075.084-.121.195-.121.317 0 .079.019.153.053.219l-.001-.003c.05.102.206.549.099 2.125-.093 1.414-.352 2.816-.768 4.16-.528 1.721-.832 3.698-.832 5.747 0 .234.004.468.012.7l-.001-.034c.758 8.256 12.634 9.704 19.682 5.051.732-.471 1.35-1.047 1.854-1.713l.013-.018c2.602-3.587 1.072-8.459-.067-11.05zM3.845 24.48c.014.267-.192.496-.461.51h-.033c-.258 0-.469-.201-.485-.455v-.001c-.043-.707-.034-1.45.019-2.256.023-.253.234-.449.491-.449.011 0 .023 0 .034.001h-.002c.256.017.457.228.457.487 0 .01 0 .021-.001.031v-.001c-.054.768-.064 1.464-.021 2.134zm.24-4.294c-.03.242-.234.427-.481.427H3.6c-.021 0-.04 0-.064-.005-.243-.031-.429-.237-.429-.486 0-.019.001-.037.003-.056v.002l.235-1.872c.035-.241.24-.424.488-.424.021 0 .041.001.062.004h-.002c.243.029.429.235.429.483 0 .021-.001.043-.004.063v-.002l-.235 1.866zM18.602 6.632c-.236-.035-.415-.237-.415-.48 0-.026.002-.051.006-.075v.003c.032-.197.208-1.205.688-1.712.09-.094.216-.153.356-.153.129 0 .246.05.334.131.197.182.208.49.022.685-.203.216-.376.83-.432 1.197-.038.234-.24.411-.482.411-.028 0-.055-.002-.081-.007h.003zM.778 9.048c-.093-.36-.326-.955-.549-1.149C.126 7.81.061 7.68.061 7.534c0-.123.046-.235.122-.32.09-.102.222-.166.368-.166.124 0 .237.046.324.122H.874c.526.459.8 1.445.851 1.638.009.036.015.076.015.119 0 .226-.154.416-.363.469l-.003.001c-.037.01-.079.015-.122.015-.226 0-.416-.153-.472-.361l-.001-.003z"/></symbol><symbol id="icon-fire-background" viewBox="0 0 28 32"><path d="M28.799 21.831c-.373-.836-.887-1.659-1.639-2.609-1.896-2.386-2.474-7.706-2.481-7.757-.026-.255-.206-.466-.443-.542-.059-.019-.127-.031-.197-.031-.192 0-.364.083-.484.215v.001c-2.262 2.533-1.311 6.443-.797 8.006.141.427.296.931.405 1.442.835 4.127-.778 5.996-1.157 6.373-.366.102-.617.051-.848-.198-.797-.874-1.06-3.738-.688-7.47.077-.759.058-1.442-.051-2.08-.786-4.587-3.668-7.529-4.402-8.561-2.018-2.985-2.224-7.955-2.23-7.999-.006-.236-.141-.447-.353-.549-.206-.102-.456-.089-.649.045-3.368 2.29-3.078 7.808-2.609 10.889.109.714.321 1.442.688 2.36 1.305 3.285-.257 7.527-.27 7.566s-.026.07-.032.108c-.199 1.046-.533 1.671-.906 1.671-.039 0-.077-.006-.122-.019-.456-.096-.694-.581-.7-1.002-.026-5.441-5.482-7.272-5.54-7.291-.244-.077-.514-.006-.681.191-.174.198-.206.472-.09.702.064.134.27.721.129 2.794-.122 1.863-.463 3.706-1.009 5.473C.345 27.795.55 31.807.563 31.998c.998 10.864 16.609 12.768 25.873 6.647 1.015-.67 1.844-1.435 2.455-2.277 3.419-4.721 1.407-11.131-.09-14.538zM5.053 32.21c.019.351-.251.651-.604.67H4.41c-.341 0-.623-.262-.643-.6-.058-.931-.045-1.907.026-2.966.026-.351.334-.612.688-.593.353.026.623.332.598.683-.071 1.008-.084 1.927-.026 2.807zm.315-5.652c-.039.325-.315.561-.636.561-.026 0-.051 0-.084-.006-.347-.045-.598-.357-.559-.708l.308-2.462c.045-.344.36-.593.72-.555.354.045.604.364.559.714l-.308 2.456zM24.451 8.727c-.351-.054-.591-.379-.537-.727.04-.259.272-1.586.902-2.253.243-.257.649-.271.908-.029.125.116.203.282.203.465 0 .169-.066.323-.174.437-.267.283-.494 1.091-.57 1.575-.054.344-.378.586-.733.533zM1.023 11.905C.9 11.431.594 10.648.301 10.393c-.267-.232-.294-.635-.06-.9s.639-.292.907-.059c.693.603 1.054 1.901 1.12 2.154.088.341-.119.688-.463.776-.351.088-.695-.123-.783-.459z"/></symbol><symbol id="icon-frame" viewBox="0 0 31 32"><path stroke="var(--color1, #ff6b09)" stroke-width=".6154" d="M31.077 4.615V.307H.308v31.385h30.769v-4.308"/></symbol><symbol id="icon-man" viewBox="0 0 27 32"><path d="M-.103 31.759h26.785c.133-3.055-.087-8.123-1.964-10.535l-.068-.087-4.104-2.06c.089-.301.133-.576.151-.779.004-.041.007-.089.007-.137 0-.195-.039-.381-.11-.55l.003.009c-.677-1.62-2.109-2.472-2.897-2.835.24-.484.395-1.003.469-1.534.456-.131.805-.489.921-.942l.002-.009.479-1.947c.025-.096.039-.206.039-.319 0-.252-.071-.488-.194-.688l.003.006c-.08-.13-.178-.24-.291-.332l-.002-.002c1.35-3.068-.912-5.96-1.035-6.113C15.642.257 12.547.752 12.383.782c-4.466.935-6.189 4.358-5.216 8.372-.211.233-.34.543-.34.884 0 .112.014.221.04.325l-.002-.009.481 1.949c.117.468.473.82.915.947.142.989.554 1.863 1.158 2.567l-.006-.007v1.543c-6.409 3.282-2.348 1.188-7.485 3.787-.01.048-2.409 2.599-2.053 10.158l.022.462zm25.854-.97h-4.408v-1.852l2.915-6.675c1.461 2.425 1.515 7.053 1.493 8.527zm-6.016-12.573c-.17 1.955-1.241 1.364-1.903 2.869-.52-.572-.677-1.258-.537-1.993.253-1.349-.571-1.749-.367-3.166l.031-.032v-.005c.017-.02.18-.213.227-.274 1.744.76 2.584 2.174 2.55 2.6zm-9.356-1.535c.793.559 1.778.894 2.842.894 1.017 0 1.963-.306 2.75-.831l-.018.011c.112 1.113.547 1.337.393 2.157-.025.128-.045.282-.054.439v.01l-3.002 3.383-3.838-4.327.927-.483V16.68zm-1.207-4.142V7.367c.467-.864 1.104-1.491 1.895-1.867 2.12 1.2 4.56 2.99 6.197 4.792-.002 2.294.007 2.3-.009 2.489l-.001.012c-.128 2.084-1.841 3.811-4.038 3.811-2.135 0-3.909-1.677-4.037-3.831-.005-.063-.008-.136-.008-.21v-.024.001zm-.598 6.347l4.716 5.317 3.167-3.569c.072.209.173.405.289.596l-3.456 4.322-5.153-6.446.437-.22zm9.656-7.127v-1.498l.36-.413c.02.759.102-.136-.36 1.911zM12.561 1.733c.192.012 2.765-.391 4.799 1.805.08.1 1.736 2.233 1.071 4.567-.228-1.039-.625-2.369-1.252-3.004l-.685.683c.619.627 1.027 2.537 1.181 3.527-2.84-2.972-6.504-4.853-6.555-4.885-.183.114-1.734.409-2.86 2.598l-.053.104v1.608l-.143.001c-.715-3.455.655-6.199 4.497-7.004zM7.963 9.735l.243.987v1.038l-.405-1.64c-.06-.244.121-.337.161-.385zm-.71 9.814L13.29 27.1l4.085-5.109c.445.398.658.454 1.6.939l-.317-1.078c-.081-.273.239-.713.431-.914.433-.238.789-.568 1.05-.966l.007-.011 3.333 1.673-3.102 7.1v2.055H6.202v-2.055l-3.103-7.099 4.153-2.085zM2.32 22.265l2.916 6.673v1.851H.828c-.022-1.473.033-6.1 1.492-8.525z"/></symbol><symbol id="icon-man-frame" viewBox="0 0 31 32"><path d="M7.953 23.273h12.362c.062-1.41-.04-3.749-.906-4.862l-.031-.04-1.894-.951c.041-.139.062-.266.07-.359.002-.019.003-.041.003-.063 0-.09-.018-.176-.051-.254l.002.004c-.312-.748-.974-1.141-1.337-1.309.111-.223.182-.463.217-.708.21-.06.372-.226.425-.435l.001-.004.221-.898c.012-.044.018-.095.018-.147 0-.116-.033-.225-.09-.318l.002.003c-.037-.06-.082-.111-.134-.153l-.001-.001c.623-1.416-.421-2.751-.478-2.822-1.13-1.222-2.559-.994-2.634-.98-2.061.432-2.857 2.011-2.408 3.864-.097.107-.157.251-.157.408 0 .052.006.102.019.15l-.001-.004.222.899c.054.216.218.378.422.437.066.456.256.86.535 1.185l-.003-.003v.712c-2.958 1.515-1.084.548-3.454 1.748-.005.022-1.112 1.199-.948 4.688l.01.213zm11.932-.447h-2.034v-.855l1.346-3.081c.674 1.119.699 3.255.689 3.935zm-2.776-5.803c-.079.902-.573.63-.878 1.324-.24-.264-.313-.581-.248-.92.117-.622-.263-.807-.169-1.461l.014-.015v-.002c.008-.009.083-.098.105-.126.805.351 1.193 1.003 1.177 1.2zm-4.319-.709c.366.258.821.413 1.312.413.47 0 .906-.141 1.269-.383l-.008.005c.052.514.252.617.182.995-.012.059-.021.13-.025.203v.005l-1.386 1.562-1.771-1.997.428-.223v-.579zm-.557-1.911v-2.387c.215-.399.51-.688.875-.862.978.554 2.105 1.38 2.86 2.212-.001 1.059.003 1.062-.004 1.149v.006c-.059.962-.85 1.759-1.864 1.759-.986 0-1.804-.774-1.863-1.768-.002-.028-.003-.061-.003-.093v-.015.001zm-.276 2.929l2.177 2.454 1.462-1.647c.033.096.08.187.134.275l-1.595 1.995-2.378-2.975.202-.102zm4.457-3.289v-.691l.166-.191c.009.35.047-.063-.166.882zm-2.616-4.628c.089.006 1.276-.181 2.215.833.037.046.801 1.031.494 2.108-.105-.479-.288-1.094-.578-1.386l-.316.315c.286.289.474 1.171.545 1.628-1.311-1.372-3.002-2.24-3.026-2.254-.085.053-.8.189-1.32 1.199l-.025.048v.742l-.066.001c-.33-1.594.302-2.861 2.076-3.233zm-2.123 3.693l.112.456v.479l-.187-.757c-.028-.113.056-.155.074-.178zm-.328 4.53l2.786 3.485 1.885-2.358c.205.184.304.21.738.433l-.146-.498c-.037-.126.11-.329.199-.422.2-.11.364-.262.485-.446l.003-.005 1.538.772-1.432 3.277v.949h-6.542v-.949l-1.432-3.277 1.917-.962zm-2.276 1.253l1.346 3.08v.854H8.382c-.01-.68.015-2.815.689-3.934z"/><path stroke="var(--color1, #ff6b09)" stroke-width=".6154" d="M31.077 4.615V.307H.308v31.385h30.769v-4.308"/></symbol><symbol id="icon-mobile" viewBox="0 0 33 32"><path d="M30.175-.128H14.429c-1.026.001-1.858.833-1.859 1.859V8.25L.871 13.159c-.139.059-.235.194-.235.352 0 .139.074.26.185.326l.002.001 1.492.893v9.516c-.77.181-1.334.861-1.335 1.673v.917c0 .211.17.381.381.381h2.671c.211 0 .381-.171.381-.381v-.917c0-.816-.573-1.498-1.337-1.673v-9.06l1.18.706c-.037.272-.005-.474-.017 4.43 0 1.612 4.129 2.476 8.33 2.525v7.425c0 1.025.832 1.856 1.857 1.856H30.172c1.025-.001 1.857-.832 1.857-1.857 0 .051-.002-1.573 0-28.539 0-1.012-.836-1.859-1.856-1.859zM3.651 25.918v.537H1.743v-.537c0-.528.427-.957.952-.957.528 0 .957.43.957.957zm26.524 5.446H14.429c-.378 0-.711-.191-.909-.481-.117-.171-.187-.383-.187-.61V27.697h17.934v2.575c0 .596-.497 1.092-1.092 1.092zm1.092-4.429H13.332v-4.086c2.051-.023 8.335-.475 8.335-2.527-.003-3.08.005-4.33-.01-4.436l3.421-2.049c.111-.068.184-.189.184-.326 0-.157-.095-.292-.23-.35l-.002-.001-11.698-4.91V5.068h17.935v21.868zm-18.316-9.143c-2.113 0-6.182.273-7.949 1.427.011-3.53-.123-3.3.312-3.6 1.098-.808 4.239-1.373 7.637-1.373 1.482 0 7.954.407 7.954 1.777v3.196c-1.784-1.165-5.832-1.428-7.954-1.428zm.381-16.061c.001-.605.491-1.095 1.096-1.095h15.745c.605 0 1.093.498 1.093 1.095v2.574H13.332V1.731zm-.381 7.184l11.09 4.655-2.748 1.644c-1.461-1.449-6.294-1.729-8.342-1.729-2.051 0-6.884.281-8.342 1.729L1.86 13.57l11.091-4.655zM5.002 20.321c0-.616 2.73-1.768 7.949-1.768 5.222 0 7.954 1.151 7.954 1.767s-2.732 1.768-7.954 1.768c-5.219 0-7.949-1.151-7.949-1.768z"/><path d="M22.301 28.271c-.694 0-1.26.565-1.26 1.26s.565 1.26 1.26 1.26 1.26-.565 1.26-1.26c0-.694-.565-1.26-1.26-1.26zm0 1.759c-.264-.014-.473-.232-.473-.498s.209-.484.472-.498h.001c.275 0 .498.223.498.498s-.223.498-.498.498zm1.454-27.94h-2.907v.762h2.907V2.09z"/></symbol><symbol id="icon-mobile-frame" viewBox="0 0 31 32"><path d="M20.406 8.558H13.29c-.464.001-.839.376-.84.84v2.946l-5.287 2.219c-.063.027-.106.088-.106.159 0 .062.033.117.083.147h.001l.674.403v4.3c-.348.082-.603.389-.603.756v.415c0 .095.077.172.172.172h1.207c.095 0 .172-.077.172-.172v-.414c0-.369-.259-.677-.604-.756v-4.094l.533.319c-.017.123-.002-.214-.008 2.002 0 .729 1.866 1.119 3.765 1.141v3.356c0 .463.376.839.839.839h7.117c.463 0 .839-.376.839-.839 0 .023-.001-.711 0-12.898 0-.457-.378-.84-.839-.84zM8.419 20.328v.242h-.862v-.242c0-.238.193-.433.43-.433s.432.194.432.433zm11.987 2.462H13.29c-.171 0-.322-.086-.411-.218-.053-.077-.085-.173-.085-.276v-1.164h8.105v1.164c0 .27-.225.494-.494.494zm.494-2.002h-8.105v-1.847c.927-.01 3.767-.215 3.767-1.142-.001-1.392.002-1.957-.004-2.005l1.546-.926c.05-.031.083-.085.083-.148 0-.071-.043-.132-.104-.158h-.001l-5.286-2.219v-1.438h8.105v9.883zm-8.278-4.132c-.955 0-2.794.123-3.592.645.005-1.595-.055-1.491.141-1.627.496-.365 1.916-.62 3.451-.62.67 0 3.595.184 3.595.803v1.444c-.806-.526-2.636-.645-3.595-.645zm.172-7.258c0-.273.222-.495.495-.495h7.116c.273 0 .494.225.494.495v1.163h-8.105V9.398zm-.172 3.246l5.012 2.104-1.242.743c-.66-.655-2.844-.782-3.77-.782-.927 0-3.111.127-3.77.782l-1.242-.743 5.012-2.104zM9.03 17.799c0-.279 1.234-.799 3.592-.799 2.36 0 3.595.52 3.595.799s-1.235.799-3.595.799c-2.358 0-3.592-.52-3.592-.799z"/><path d="M16.848 21.392c-.314 0-.569.255-.569.57s.255.57.569.57.569-.255.569-.57c0-.314-.255-.569-.569-.569zm0 .794c-.118-.008-.211-.106-.211-.225s.093-.217.21-.225h.001c.121.005.217.104.217.225s-.096.22-.216.225zm.657-12.626h-1.314v.344h1.314V9.56z"/><path stroke="var(--color1, #ff6b09)" stroke-width=".6154" d="M31.077 4.615V.307H.308v31.385h30.769v-4.308"/></symbol><symbol id="icon-open-book" viewBox="0 0 46 32"><path d="M20.267 4.608H6.627v1.021h13.64V4.608zm0 3.808H8.67v1.021h11.597V8.416zm0 3.808H6.627v1.021h13.64v-1.021zm0 3.808H8.67v1.021h11.597v-1.021zm0 3.808H6.627v1.021h13.64V19.84zm0 3.808H8.67v1.021h11.597v-1.021zM38.99 4.608H25.35v1.021h13.64V4.608zm-2.043 3.808H25.35v1.021h11.596V8.416zm2.043 3.808H25.35v1.021h13.64v-1.021zm-2.043 3.808H25.35v1.021h11.596v-1.021zm2.043 3.808H25.35v1.021h13.64V19.84zm-2.043 3.808H25.35v1.021h11.596v-1.021z"/><path d="M43.915 3.445h-1.872V.633c0-.282-.229-.511-.511-.511H26.249c-1.469 0-2.75.802-3.43 1.991l-.01.019C22.118.923 20.836.121 19.367.121H4.086c-.282 0-.511.229-.511.511v2.812H1.702c-.282 0-.511.229-.511.511v27.411c0 .282.229.511.511.511h42.213c.282 0 .51-.229.51-.511V3.955c0-.282-.229-.511-.511-.511zM26.267 1.144H41.02v27.349H25.178c-.703 0-1.405.296-1.859.68V4.085v-.009c0-1.619 1.313-2.932 2.932-2.932h.015-.001zm-21.671 0h14.773c1.581 0 2.869 1.255 2.922 2.824v.005c.001.022.003.091.007.113v25.087c-.453-.383-1.148-.678-1.852-.678H4.596V1.145zM2.213 4.467h1.362v24.538c0 .282.229.511.511.511h16.36c.779 0 1.531.511 1.772 1.341H2.213V4.468zm41.191 26.389H23.4c.227-.78.936-1.341 1.775-1.341H41.532c.282 0 .511-.229.511-.511V4.466h1.361v26.389z"/></symbol><symbol id="icon-phone" viewBox="0 0 33 32"><path d="M4.818.002c-.572.026-1.08.279-1.439.672l-.001.002L.693 3.629c.004-.009-.011-.008-.086.099-.039.053-.071.113-.092.179l-.001.005C-.578 7.392.154 11.22 1.937 14.86c1.785 3.641 4.63 7.125 7.897 9.984 3.266 2.859 6.953 5.096 10.467 6.206 3.516 1.109 6.923 1.095 9.449-.737.029-.021.054-.043.077-.067.066-.066.068-.075.057-.065l2.681-2.95c.333-.369.537-.86.537-1.399 0-.608-.26-1.156-.675-1.538l-6.337-5.765c-.369-.334-.86-.538-1.4-.538-.608 0-1.156.26-1.538.674l-2.868 3.154c-2.328-.673-4.318-1.816-6.231-3.556-1.913-1.741-3.24-3.615-4.13-5.869l2.866-3.153c.334-.369.538-.861.538-1.4 0-.608-.259-1.155-.674-1.537L6.314.538C5.947.204 5.458 0 4.92 0c-.037 0-.074.001-.11.003h.005zm.059 1.293c.009 0 .019-.001.03-.001.205 0 .392.08.53.21l6.337 5.763c.16.14.26.345.26.573 0 .203-.079.387-.209.524l-3.169 3.482c-.104.115-.168.268-.168.436 0 .081.015.158.041.229l-.001-.005c.961 2.624 2.513 4.778 4.647 6.719 2.135 1.942 4.423 3.283 7.126 3.992.05.014.107.021.166.021.191 0 .362-.082.482-.213v-.001l3.169-3.482c.14-.16.345-.26.573-.26.203 0 .387.079.524.209l6.338 5.763c.16.14.26.345.26.573 0 .203-.08.388-.209.524l-2.649 2.913c-2.072 1.486-4.992 1.57-8.262.537-3.283-1.036-6.846-3.182-9.999-5.942s-5.898-6.131-7.585-9.574C1.439 10.878.834 7.433 1.752 4.397l2.589-2.845c.133-.15.323-.247.535-.259h.002z"/></symbol><symbol id="icon-psychology" viewBox="0 0 33 32"><path d="M1.993 12.558v2.831c0 .152.069.295.189.39 1.864 1.471 4.246 2.36 6.836 2.362.741 0 1.482-.077 2.207-.224 1.433.652 3.108 1.032 4.872 1.032h.019-.001c1.707 0 3.351-.349 4.89-1.032 3.091.625 6.385-.046 9.043-2.138.116-.092.189-.232.189-.39v-2.831c0-.415-.207-.794-.575-1.027l-3.867-2.176c.846-1.073 1.476-2.602 1.586-3.913.321-2.256-1.519-4.646-4.166-4.646-1.113 0-2.171.459-2.947 1.227-.027.027-.058.049-.084.077-.024.025-.043.054-.067.08-.015.017-.029.035-.044.053C19.316.852 17.862 0 16.148 0c-.167 0-.329.011-.491.028-.01-.001-.019-.006-.029-.006-.092 0-.287.025-.391.055-.015.004-.027.015-.041.021-1.296.262-2.369 1.054-3.002 2.135l-.011.021C11.413 1.36 10.279.797 9.014.797h-.01.001c-3.908 0-5.642 4.612-2.557 8.581l-3.903 2.167c-.347.219-.553.599-.553 1.014zm19.004 4.27c-.084.041-.167.085-.251.123l-.002.001c-1.349.635-2.929 1.006-4.596 1.006h-.033.002-.025c-2.509 0-4.823-.837-6.677-2.248l.027.02v-2.87c0-.097.047-.184.102-.221l4.542-2.525c.565.48 1.287.832 2.035.832.72 0 1.499-.357 2.052-.843l4.487 2.52c.083.053.131.139.131.237v2.87c-.52.395-1.108.76-1.729 1.069l-.064.029zm8.157-4.447c.056.037.092.099.092.169v2.595c-1.969 1.477-4.337 2.148-6.737 1.98.419-.265.772-.515 1.111-.782l-.028.022c.116-.092.19-.232.19-.39V12.86c0-.435-.219-.835-.611-1.087l-2.383-1.339.58-.321c.703.573 1.307.744 1.848.744.663 0 1.36-.325 1.878-.759l4.06 2.284zM23.216 1.788c1.381 0 2.593.902 3.021 2.142-.889-.115-1.664-.531-2.235-1.14L24 2.788c-.091-.097-.22-.158-.363-.158-.18 0-.338.096-.425.24l-.001.002c-.546.916-1.456 1.567-2.524 1.757l-.022.003-.001-.003c0-.025.001-.054.001-.083 0-.201-.012-.399-.036-.594l.002.023-.007-.066c-.034-.24-.076-.446-.13-.647l.009.038c.563-.902 1.609-1.513 2.713-1.513zm-2.66 3.855c1.291-.143 2.407-.797 3.157-1.751l.008-.01c.767.629 1.74 1.01 2.701 1.056-.007 1.792-1.471 4.927-3.206 4.927-1.337 0-2.479-1.912-2.905-3.238.109-.341.187-.669.245-.983zm.101 3.73l-.886.491-.895-.503c.332-.413.636-.893.897-1.413.25.527.551 1.01.884 1.425zM19.32 6.465c-.478 1.427-1.705 3.49-3.2 3.49-1.742 0-3.225-2.864-3.508-4.696.075-.019 2.429.127 4.049-2.001.823.688 1.932 1.143 3.011 1.188.013.647-.144 1.407-.352 2.019zM16.149.991c2.78 0 3.309 2.393 3.353 2.443-1.017-.113-1.908-.58-2.561-1.274l-.002-.002c-.091-.097-.219-.157-.362-.157-.181 0-.339.097-.426.242l-.001.002c-.533.901-1.379 1.569-2.385 1.86l-.029.007c-.342.097-.734.153-1.14.153h-.028.001c.136-1.821 1.596-3.273 3.58-3.273zm-3.688 6.947c.257.515.563 1.007.913 1.439l-.875.487-.907-.51c.321-.411.61-.876.849-1.369l.02-.046zm-3.455-6.15c1.125 0 2.155.571 2.729 1.514-.029.1-.107.498-.117.548-.723-.179-1.343-.552-1.819-1.061l-.002-.002c-.091-.097-.219-.157-.362-.157-.181 0-.339.097-.425.242l-.001.002c-.657 1.09-1.832 1.81-3.177 1.815h-.001c.158-1.627 1.518-2.9 3.174-2.9zm-3.13 3.889c1.475-.018 2.784-.712 3.635-1.786l.007-.01c.57.468 1.265.806 2.027.956l.029.005c.029.575.179 1.273.35 1.789-.273.84-.799 1.84-1.451 2.505-.004.004-.009.006-.013.01-.408.43-.988.719-1.444.719-1.594 0-2.841-2.508-3.14-4.188zm-2.891 6.881c0-.075.033-.139.067-.162l4.116-2.284c.247.206.304.229.353.265.485.323.929.483 1.534.483.645 0 1.233-.273 1.749-.694.029-.023.06-.045.088-.068l.587.33-2.447 1.361c-.353.229-.584.622-.584 1.069V15.976c0 .152.07.295.19.389.317.249.727.539 1.083.761-2.434.167-4.803-.528-6.737-1.98v-2.587z"/><path d="M31.259 20.781c-.312-.2-.693-.319-1.102-.319-.329 0-.641.077-.917.215l.012-.005-6.12 2.957c-.022-1.147-.956-2.069-2.106-2.071l-3.51.001c-1.73-1.504-3.941-2.425-5.952-2.473-1.983-.047-3.762-.06-4.592-.064V18.02H0v11.517h6.972v-1.379c1.911 1.098 6.939 3.845 9.325 3.845.053 0 .107-.001.157-.005 4.196-.235 14.091-7.198 14.743-7.66.622-.367 1.033-1.033 1.034-1.796v-.006c0-.736-.385-1.382-.965-1.747l-.009-.005zM5.98 28.543H.992V19.01H5.98v9.533zm24.707-5.058c-.017.009-.031.018-.045.028l.001-.001c-.103.073-10.281 7.271-14.245 7.493-.035.002-.077.003-.12.003-2.093 0-7.195-2.753-9.307-4.001V20.01c.827.003 2.596.017 4.569.063 1.837.045 3.876.921 5.455 2.346l.141.128 3.888-.001c.618.001 1.118.501 1.119 1.119 0 .618-.501 1.119-1.119 1.119h-7.142v.991h7.142c.685 0 1.288-.333 1.673-.839l6.984-3.373c.138-.07.301-.112.474-.112.214 0 .413.063.579.172l-.004-.003c.323.202.508.537.508.918-.001.404-.221.756-.548.943l-.005.003zM16.611 12.159h-.991v.92h.991v-.92zm0 1.833h-.991v.92h.991v-.92zm0 1.835h-.991v.919h.991v-.92z"/></symbol><symbol id="icon-study-program" viewBox="0 0 31 32"><path d="M30.151 4.961l-.001-.003c-.007-.017-.015-.032-.025-.046l.001.001-.003-.003c-.01-.016-.021-.029-.033-.042L25.283.062c-.012-.012-.025-.023-.039-.032l-.001-.001c-.003-.002-.007-.003-.009-.006-.01-.006-.022-.013-.034-.019l-.002-.001-.011-.004c-.029-.012-.063-.019-.098-.02H3.912c-.157 0-.283.127-.283.284v29.311c0 .019.001.037.005.055l.007.023.01.03c.003.009.009.017.013.025.004.007.007.016.013.023.01.015.021.028.033.04l2.167 2.167c.051.051.122.083.201.083s.149-.032.201-.083l1.965-1.964 1.964 1.964c.051.052.122.084.201.084s.15-.032.201-.084l1.963-1.963 1.965 1.963c.051.051.122.083.201.083s.149-.032.201-.083l1.963-1.963 1.964 1.963c.051.051.122.083.201.083s.149-.032.201-.083l1.965-1.964 1.964 1.964c.051.052.122.084.201.084s.149-.032.201-.084l1.964-1.963 1.965 1.963c.051.051.122.083.201.083s.149-.032.201-.083l2.165-2.165.011-.013c.008-.009.017-.019.024-.029.007-.009.011-.02.016-.03.004-.007.007-.012.009-.019.007-.013.009-.027.013-.04l.005-.013c.003-.017.005-.036.005-.056V5.068c-.001-.039-.009-.077-.023-.111l.001.002zM25.367.949l3.836 3.835h-3.836V.949zm4.237 28.507l-1.88 1.88-1.965-1.964c-.051-.051-.122-.083-.201-.083s-.149.032-.201.083l-1.963 1.964-1.964-1.964c-.051-.051-.122-.083-.201-.083s-.149.032-.201.083l-1.965 1.964-1.963-1.964c-.051-.052-.122-.084-.201-.084s-.15.032-.201.084l-1.963 1.964-1.965-1.964c-.052-.051-.123-.083-.201-.083s-.149.032-.201.083l-1.963 1.964-1.964-1.964c-.052-.051-.123-.083-.201-.083s-.149.032-.201.083l-1.964 1.964-1.88-1.88V.547h20.603v4.522c0 .157.127.284.284.284h4.521v24.103z"/><path d="M6.313 3.234h9.303c.157 0 .284-.127.284-.284s-.127-.284-.284-.284H6.313c-.157 0-.284.127-.284.284s.127.284.284.284zm0 1.757h14.92c.157 0 .284-.127.284-.284s-.127-.284-.284-.284H6.313c-.157 0-.284.127-.284.284s.127.284.284.284zm-.284 1.577v9.199c0 .157.127.284.285.284h21.172c.157 0 .284-.127.284-.284V6.568c0-.157-.127-.284-.284-.284H6.313h-.001c-.157 0-.284.127-.284.284zm6.279.284h14.893v2.445H12.308V6.852zm0 3.013h14.893v2.444H12.308V9.865zm0 3.012h14.893v2.605H12.308v-2.605zm-5.71-6.025h5.142v2.445H6.598V6.852zm0 3.013h5.142v2.444H6.598V9.865zm0 3.012h5.142v2.605H6.598v-2.605zm20.888 4.452H6.313h-.001c-.157 0-.284.127-.284.284v9.198c0 .157.127.284.284.284s.284-.127.284-.284v-2.889h5.143v2.889c0 .157.127.284.284.284s.284-.127.284-.284v-2.889H27.2v2.889c0 .157.127.284.284.284s.284-.127.284-.284v-9.198-.001c0-.156-.127-.283-.283-.283h-.001zM11.74 23.353H6.598V20.91h5.142v2.443zm0-3.012H6.598v-2.444h5.142v2.444zm15.461 3.012H12.308V20.91h14.893v2.443zm0-3.012H12.308v-2.444h14.893v2.444zM2.281-.021c-.157 0-.284.127-.284.284v29.311c0 .157.127.284.284.284s.284-.127.284-.284V.263c0-.157-.127-.284-.284-.284zm-1.563 0c-.157 0-.284.127-.284.284v29.311c0 .157.127.284.284.284s.284-.127.284-.284V.263c0-.157-.127-.284-.284-.284z"/></symbol><symbol id="icon-umbrella" viewBox="0 0 28 32"><path d="M.542 13.742c0 .357-.542.357-.542 0C0 6.154 6.154 0 13.742 0c7.591 0 13.742 6.154 13.742 13.742 0 .357-.538.357-.538 0 0-5.129-8.429-5.132-8.429 0 0 .357-.555.357-.555 0 0-5.116-8.441-5.116-8.441 0 0 .357-.555.357-.555 0 0-5.107-8.425-5.142-8.425 0zm8.473-1.992c.147-2.952.61-5.599 1.285-7.62.539-1.607 1.22-2.826 1.992-3.511C6.498 1.252 1.807 5.644.759 11.341c1.995-2.877 6.602-2.647 8.257.409zm8.906-.133c-.149-2.838-.6-5.378-1.249-7.315-1.673-5.013-4.185-5.013-5.859 0-.649 1.937-1.097 4.477-1.249 7.315 1.801-3.059 6.557-3.059 8.357 0zm8.804-.276C25.68 5.644 20.989 1.252 15.192.62c.775.685 1.453 1.905 1.992 3.511.675 2.021 1.139 4.668 1.285 7.62 1.665-3.072 6.284-3.253 8.257-.409zM11.938 20.03v-2.791c-.503.334-.898.85-.898 1.48 0 .613.402 1.019.899 1.311zm.542.867c-.963-.441-1.979-.957-1.979-2.177 0-1.259.957-1.889 1.979-2.359v4.537zm3.066 3.343v2.823c.509-.338.908-.857.908-1.487 0-.619-.409-1.037-.908-1.336zm-.539-.869c.967.447 1.989.98 1.989 2.206 0 1.262-.963 1.891-1.989 2.359v-4.565z"/><path d="M15.546 14.063c2.219.513 4.5 2.173 4.5 4.655 0 2.125-3.592 2.047-3.592 0 0-.633-.399-1.151-.908-1.486v3.971c2.053.671 4.506 1.875 4.506 4.373 0 2.485-2.281 4.143-4.507 4.652-.009 2.365-3.6 2.361-3.607-.003-1.265-.292-2.365-.883-3.16-1.665-.833-.824-1.327-1.859-1.327-2.985 0-2.092 3.588-2.092 3.588 0 0 .627.395 1.142.899 1.477v-3.968c-2.037-.659-4.503-1.898-4.503-4.373 0-2.485 2.281-4.143 4.503-4.652.009-2.365 3.601-2.362 3.607.003zm-3.066.007v.431c-2.112.419-4.506 1.771-4.506 4.211 0 2.346 2.628 3.397 4.507 3.977v5.243c-1.016-.464-1.98-1.09-1.98-2.355 0-1.382-2.511-1.382-2.511 0 0 .977.435 1.879 1.168 2.599.931.921 2.06 1.36 3.322 1.609v.435c0 1.664 2.527 1.664 2.527 0v-.431c2.119-.422 4.503-1.775 4.503-4.211 0-2.368-2.621-3.387-4.503-3.98v-5.24c1.019.464 1.989 1.09 1.989 2.362 0 1.347 2.508 1.401 2.508 0 0-2.437-2.381-3.793-4.497-4.214v-.435c0-1.665-2.527-1.665-2.527 0z"/></symbol><symbol id="icon-umbrella-frame" viewBox="0 0 31 32"><path d="M7.942 14.958c0 .165-.25.165-.25 0 0-3.502 2.84-6.342 6.342-6.342 3.504 0 6.342 2.84 6.342 6.342 0 .165-.249.165-.249 0 0-2.367-3.89-2.369-3.89 0 0 .165-.256.165-.256 0 0-2.361-3.896-2.361-3.896 0 0 .165-.256.165-.256 0 0-2.357-3.888-2.373-3.888 0zm3.911-.92c.068-1.362.282-2.584.593-3.517.249-.742.563-1.304.919-1.62-2.674.292-4.839 2.319-5.323 4.949.921-1.328 3.047-1.222 3.811.189zm4.11-.061c-.069-1.31-.277-2.482-.577-3.376-.772-2.314-1.931-2.314-2.704 0-.299.894-.506 2.066-.576 3.376.831-1.412 3.026-1.412 3.857 0zm4.064-.127c-.482-2.629-2.647-4.657-5.323-4.949.358.316.671.879.919 1.62.311.933.526 2.154.593 3.517.768-1.418 2.9-1.502 3.811-.189zm-6.825 4.01v-1.288c-.232.154-.414.392-.414.683 0 .283.186.47.414.605zm.25.4c-.445-.204-.913-.442-.913-1.005 0-.581.442-.872.913-1.089v2.094zm1.415 1.543v1.303c.235-.156.419-.395.419-.686 0-.286-.189-.479-.419-.617zm-.248-.401c.446.206.918.452.918 1.018 0 .582-.445.873-.918 1.089v-2.107z"/><path d="M14.867 15.106c1.024.237 2.077 1.003 2.077 2.149 0 .981-1.658.945-1.658 0 0-.292-.184-.532-.419-.686v1.833c.948.31 2.08.865 2.08 2.018 0 1.147-1.053 1.912-2.08 2.147-.004 1.091-1.662 1.09-1.665-.002-.584-.135-1.092-.407-1.458-.768-.385-.38-.612-.858-.612-1.378 0-.966 1.656-.966 1.656 0 0 .289.182.527.415.682V19.27c-.94-.304-2.078-.876-2.078-2.018 0-1.147 1.053-1.912 2.078-2.147.004-1.092 1.662-1.09 1.665.002zm-1.415.003v.199c-.975.193-2.08.818-2.08 1.943 0 1.083 1.213 1.568 2.08 1.836v2.42c-.469-.214-.914-.503-.914-1.087 0-.638-1.159-.638-1.159 0 0 .451.201.867.539 1.199.43.425.951.628 1.533.743v.201c0 .768 1.166.768 1.166 0v-.199c.978-.195 2.078-.819 2.078-1.944 0-1.093-1.21-1.563-2.078-1.837v-2.418c.47.214.918.503.918 1.09 0 .622 1.157.647 1.157 0 0-1.125-1.099-1.75-2.075-1.945v-.201c0-.768-1.166-.768-1.166 0z"/><path stroke="var(--color1, #ff6b09)" stroke-width=".6154" d="M31.077 4.615V.307H.308v31.385h30.769v-4.308"/></symbol><symbol id="icon-vk" viewBox="0 0 32 32"><path d="M27.541 18.46c1.06 1.037 2.181 2.012 3.133 3.152.421.508.819 1.03 1.123 1.619.432.836.042 1.757-.709 1.807l-4.661-.002c-1.202.099-2.161-.384-2.969-1.206-.645-.658-1.243-1.358-1.863-2.037-.246-.281-.521-.527-.824-.736l-.015-.01c-.637-.413-1.189-.287-1.553.377-.37.676-.454 1.423-.491 2.176-.05 1.098-.382 1.387-1.485 1.436-2.356.112-4.593-.245-6.67-1.434-1.833-1.049-3.253-2.528-4.489-4.203C3.661 16.137 1.817 12.554.161 8.87c-.373-.831-.1-1.276.815-1.292 1.521-.03 3.042-.028 4.564-.002.619.009 1.027.363 1.266.947.822 2.023 1.829 3.948 3.093 5.732.336.475.679.949 1.168 1.284.541.37.953.247 1.206-.354.162-.382.233-.794.269-1.202.121-1.408.137-2.812-.075-4.213-.13-.876-.623-1.442-1.495-1.609-.446-.084-.38-.25-.164-.505.374-.437.727-.711 1.429-.711h5.269c.829.164 1.013.537 1.127 1.371l.004 5.853c-.01.323.161 1.282.743 1.495.465.153.772-.22 1.052-.515 1.262-1.339 2.162-2.922 2.965-4.56.357-.72.665-1.469.962-2.215.221-.555.565-.828 1.191-.816l5.07.004c.151 0 .303.002.448.028.855.145 1.089.512.826 1.347-.416 1.309-1.225 2.4-2.016 3.495-.846 1.17-1.749 2.301-2.589 3.477-.77 1.075-.709 1.617.247 2.55z"/></symbol></defs></svg>